# xmcd
#
# Track frame offsets:
#	150
#	17382
#	42255
#	55645
#	74010
#	89288
#	103191
#	129156
#	140526
#	159446
#	173343
#	183374
#	199479
#	220301
#	238071
#	263604
#	276351
#	290009
#	311192
#
# Disc length: 4431 seconds
#
# Revision: 0
# Processed by: cddbd v1.5.2PL0 Copyright (c) Steve Scherf et al.
# Submitted via: dBpowerAMP V4.0
#
DISCID=18114d13
DTITLE=Various Artist - In Prison: Afromerica
DYEAR=2006
DGENRE=Folk/Rap
TTITLE0=Big Louisiana, Rev. Rogers and Roosevelt Charles - Berta
TTITLE1=Brand Nubian - Claimin' I'm a Criminal
TTITLE2=Bobby Womack - Arkansas State Prison
TTITLE3=Fred McDowell - I'm In Jail Again
TTITLE4=Kay Kay And The Rays - Lone Star Justice
TTITLE5=Dead Prez - Behind Enemy Lines
TTITLE6=Curtis Mayfield - Short Eyes
TTITLE7=The Last Poets - The Court Room
TTITLE8=Lifers Group - Living Proof
TTITLE9=Nina Simone - Work Song
TTITLE10=James Russell - I Had Five Long Years
TTITLE11=K-Solo - Premonition Of A Black Prisoner
TTITLE12=The Escorts - Disrespect Can Wreck
TTITLE13=Akon - Locked Up
TTITLE14=2 Pac - 16 On Death Row
TTITLE15=Billy Boy Arnold - Prisoner's Plea
TTITLE16=The Temptations - Run Charlie Run
TTITLE17=The Soul Snatcherz - Free
TTITLE18=Robert Pete Williams - Pardon Denied Again
EXTD=
EXTT0=
EXTT1=
EXTT2=
EXTT3=
EXTT4=
EXTT5=
EXTT6=
EXTT7=
EXTT8=
EXTT9=
EXTT10=
EXTT11=
EXTT12=
EXTT13=
EXTT14=
EXTT15=
EXTT16=
EXTT17=
EXTT18=
PLAYORDER=
